<?xml version="1.0" encoding="UTF-8"?>
<svg width="201px" height="205px" viewBox="0 0 201 205" version="1.1" xmlns="http://www.w3.org/2000/svg" xmlns:xlink="http://www.w3.org/1999/xlink">
    <!-- Generator: Sketch 57 (83077) - https://sketch.com -->
    <title>Untitled</title>
    <desc>Created with Sketch.</desc>
    <defs>
        <linearGradient x1="49.9999998%" y1="82.2756107%" x2="24.2424815%" y2="44.914431%" id="linearGradient-1">
            <stop stop-color="#FFD43B" offset="0%"></stop>
            <stop stop-color="#FFE873" offset="100%"></stop>
        </linearGradient>
        <linearGradient x1="0.959176447%" y1="9.14856261e-08%" x2="74.0505936%" y2="64.1103734%" id="linearGradient-2">
            <stop stop-color="#5A9FD4" offset="0%"></stop>
            <stop stop-color="#306998" offset="100%"></stop>
        </linearGradient>
        <linearGradient x1="50%" y1="0%" x2="50%" y2="100%" id="linearGradient-3">
            <stop stop-color="#FAB161" offset="0%"></stop>
            <stop stop-color="#F76B1C" offset="100%"></stop>
        </linearGradient>
        <linearGradient x1="50%" y1="0%" x2="50%" y2="100%" id="linearGradient-4">
            <stop stop-color="#141D24" offset="0%"></stop>
            <stop stop-color="#3F7CAE" offset="100%"></stop>
        </linearGradient>
    </defs>
    <g id="Page-1" stroke="none" stroke-width="1" fill="none" fill-rule="evenodd">
        <g id="Swiss-Python-Summit">
            <g id="Logo">
                <g id="snake" transform="translate(0.003534, 0.399994)">
                    <path d="M153.037836,52.251329 L153.037836,73.7036527 C153.037836,90.3353498 138.937374,104.33374 122.85819,104.333742 L74.6045376,104.333742 C61.3870541,104.333742 50.4495608,115.646124 50.449559,128.882858 L50.449559,174.884292 C50.449559,187.976565 61.8342011,195.677294 74.6045376,199.433408 C89.8967557,203.929923 104.561192,204.742557 122.85819,199.433408 C135.020416,195.912046 147.013174,188.825289 147.013168,174.884292 L147.013168,156.47246 L98.7595162,156.47246 L98.7595162,150.335181 L147.013168,150.335181 L171.168154,150.335181 C185.208374,150.335181 190.440336,140.541827 195.323115,125.842371 C200.366863,110.70951 200.152254,96.1568127 195.323115,76.7441395 C191.853302,62.7670153 185.22623,52.251329 171.168154,52.251329 L153.037836,52.251329 L153.037836,52.251329 Z M125.898676,168.747018 C130.906656,168.747024 134.963831,172.8504 134.963831,177.924779 C134.963828,183.017211 130.906651,187.15885 125.898676,187.15885 C120.908584,187.15885 116.833521,183.017211 116.833521,177.924779 C116.833525,172.8504 120.908579,168.747018 125.898676,168.747018 L125.898676,168.747018 Z" id="snake-bottom" fill="url(#linearGradient-1)"></path>
                    <path d="M98.9510181,0.00165632008 C90.6923298,0.0400309573 82.8054674,0.744377791 75.8658404,1.97234222 C55.4225692,5.58399696 51.7108636,13.1435 51.7108618,27.0845113 L51.7108618,45.4963481 L100.020819,45.4963481 L100.020819,51.6336271 L51.7108618,51.6336271 L33.5805515,51.6336271 C19.540333,51.6336271 7.2463156,60.0726077 3.40090427,76.1264375 C-1.03472907,94.5278529 -1.23147352,106.010636 3.40090427,125.224669 C6.83494863,139.526852 15.0359117,149.717476 29.0761266,149.71748 L45.6861935,149.71748 L45.6861935,127.645797 C45.6861935,111.70031 59.4826056,97.6350701 75.8658404,97.6350665 L124.119492,97.6350665 C137.551599,97.6350665 148.274476,86.575507 148.274471,73.0859507 L148.274471,27.0845113 C148.274471,13.9922399 137.229657,4.15738938 124.119492,1.97234222 C115.820563,0.590879603 107.209706,-0.0367183172 98.9510181,0.00165632008 L98.9510181,0.00165632008 Z M72.8253536,14.8099534 C77.8154402,14.8099534 81.8905087,18.9515847 81.8905087,24.0440245 C81.8905051,29.1184141 77.8154402,33.2217902 72.8253536,33.2217902 C67.8173772,33.2217884 63.7601985,29.1184123 63.7601985,24.0440245 C63.7601967,18.9515865 67.8173772,14.8099534 72.8253536,14.8099534 L72.8253536,14.8099534 Z" id="snake-top" fill="url(#linearGradient-2)"></path>
                </g>
                <g id="mountain" transform="translate(0.000000, 32.000000)">
                    <path d="M152.984224,43.9359711 L193.724877,98.8187677 C189.264261,110.803172 183.822263,118.559442 171.591291,118.732228 L171.171688,118.735175 L98.7630501,118.735175 L98.7630501,124.872454 L147.016702,124.872454 L147.016702,143.284286 C147.016707,157.225283 135.02395,164.31204 122.861723,167.833402 C104.564726,173.142551 89.9002895,172.329917 74.6080715,167.833402 C61.9707593,164.116414 50.6904233,156.536563 50.4567875,143.691666 L50.4530929,143.284286 L50.4530929,105.992994 L72.3163418,72.8477184 C72.942102,72.785253 73.5743957,72.7480315 74.2122396,72.7371203 L74.6080715,72.733736 L122.861723,72.733736 C138.346762,72.7337342 151.99661,59.7507456 152.984224,43.9359711 Z M125.90221,137.147012 C120.912113,137.147012 116.837059,141.250394 116.837055,146.324773 C116.837055,151.417205 120.912118,155.558844 125.90221,155.558844 C130.910185,155.558844 134.967362,151.417205 134.967365,146.324773 C134.967365,141.250394 130.91019,137.147018 125.90221,137.147012 Z" id="bottom" fill="url(#linearGradient-3)"></path>
                    <path d="M14.3401039,54.8953344 L45.6892333,100.075 L45.6897273,118.117473 L29.0796605,118.117473 C15.0394455,118.11747 6.83848246,107.926846 3.40443809,93.624663 C2.22172358,88.7190363 1.35379848,84.3173761 0.790839612,80.1758665 L14.3401039,54.8953344 Z M120.367493,0 L148.277233,37.597 L148.278005,41.4859446 C148.27801,54.8406053 137.768518,65.8136262 124.525169,66.0317512 L124.123026,66.0350604 L76.8092333,66.035 L120.367493,0 Z" id="top" fill="url(#linearGradient-4)"></path>
                </g>
                <g id="rays" transform="translate(0.000000, 41.000000)" fill="#FFFCEA" stroke="#FFFCEA">
                    <path d="M100.967093,63.733736 L74.7500929,158.874736 L74.6080715,158.833402 C61.9707593,155.116414 50.6904233,147.536563 50.4567875,134.691666 L50.4530929,134.284286 L50.4530929,122.249736 L82.7020929,63.733736 L100.967093,63.733736 Z" id="bottom"></path>
                    <path d="M118.232263,0.447769165 L102.088388,59.0347692 L85.9443875,59.0347692 L118.232263,0.447769165 Z" id="top-right"></path>
                    <path d="M12.8808667,56.7124674 L4.01274446,93.0504685 C3.39223417,91.3225324 2.85694991,89.5092941 2.40443809,87.624663 C1.8671313,85.3960385 1.39479332,83.2714267 0.986503104,81.2279669 L12.8808667,56.7124674 Z" id="left"></path>
                </g>
            </g>
        </g>
    </g>
</svg>